<?xml version="1.0" encoding="utf-8"?>
<!-- Generator: Adobe Illustrator 23.1.1, SVG Export Plug-In . SVG Version: 6.00 Build 0)  -->
<svg version="1.1" id="Ebene_1" xmlns="http://www.w3.org/2000/svg" xmlns:xlink="http://www.w3.org/1999/xlink" x="0px" y="0px"
	 viewBox="0 0 530.9 278.5" style="enable-background:new 0 0 530.9 278.5;" xml:space="preserve">
<style type="text/css">
	.st0{fill:#009640;}
	.st1{fill:#9C182F;}
	.st2{fill:#E87200;}
</style>
<g>
	<path class="st0" d="M267.2,264.1c0.1,0,0.1,0,0.2,0l0,0C267.3,264.1,267.3,264.1,267.2,264.1z"/>
	<path class="st1" d="M98.2,76.4h-9.4v-5.9c0-0.9-0.1-1.4-0.3-1.7c-0.2-0.3-0.6-0.5-1.2-0.5c-0.4,0-0.8,0.1-0.9,0.4
		c-0.2,0.3-0.3,0.9-0.3,1.8v25.9c0,0.8,0.1,1.4,0.3,1.7c0.2,0.3,0.6,0.5,1.1,0.5c0.4,0,0.8-0.1,1-0.4s0.4-0.6,0.4-1.1v-0.8v-9.6h9.4
		v9.9c0,4.1-0.6,6.6-1.8,7.7c-1.2,1.1-4.2,1.6-8.9,1.6c-4.8,0-7.8-0.5-9-1.6s-1.8-3.6-1.8-7.6V70.3c0-4.1,0.6-6.7,1.8-7.7
		c1.2-1,4.2-1.5,8.9-1.5c4.8,0,7.8,0.5,9,1.6s1.8,3.6,1.8,7.6L98.2,76.4L98.2,76.4z M123.5,105.6h-9.4V84.9h-2.8v20.7H102V61.4h9.3
		v16.3h2.8V61.4h9.4V105.6z"/>
	<path class="st2" d="M6.1,109.3c4.9,22.8,29.2,44.2,70.3,61.1v-8.6C41.4,149.2,15.7,130.8,6.1,109.3z"/>
	<path class="st2" d="M192.5,15.8C99.9,18.3,29.1,57.4,34.3,103.1c0.6,4.8,2,9.6,4.1,14.1c-0.4-1.4-0.7-2.8-0.9-4.2
		c-5.1-44.3,61.1-82.3,149.3-87c6-3.9,12.3-7.4,18.9-10.3C201.4,15.7,196.9,15.7,192.5,15.8z"/>
	<path class="st1" d="M76.4,161.7v-8.3c-18.2-10.1-31.5-22.5-38-36.2c-2.1-4.6-3.6-9.3-4.1-14.1C29,57.4,99.9,18.3,192.5,15.8
		c4.4-0.1,8.9-0.1,13.3-0.1c10-4.5,20.7-7.8,31.9-9.8c-20-3-41.2-4.5-62.9-3.9C73.9,4.7-3.3,46.5,2.3,95.3c0.5,4.8,1.9,9.4,3.9,13.9
		C15.7,130.8,41.4,149.2,76.4,161.7z"/>
	<path class="st1" d="M87.4,61.1c-4.7,0-7.7,0.5-8.9,1.5c-1.2,1-1.8,3.5-1.8,7.7v26.4c0,4,0.6,6.6,1.8,7.6c1.2,1.1,4.2,1.6,9,1.6
		c4.7,0,7.7-0.5,8.9-1.6c1.2-1.1,1.8-3.6,1.8-7.7v-9.9h-9.4v9.6v0.8c0,0.5-0.1,0.8-0.4,1.1c-0.2,0.3-0.6,0.4-1,0.4
		c-0.5,0-0.8-0.2-1.1-0.5c-0.2-0.3-0.3-0.9-0.3-1.7V70.5c0-0.9,0.1-1.5,0.3-1.8c0.2-0.3,0.5-0.4,0.9-0.4c0.6,0,1,0.2,1.2,0.5
		s0.3,0.9,0.3,1.7v5.9h9.4v-6.1c0-4-0.6-6.5-1.8-7.6C95.3,61.6,92.3,61.1,87.4,61.1z"/>
	<polygon class="st1" points="114.1,77.7 111.3,77.7 111.3,61.4 102,61.4 102,105.6 111.3,105.6 111.3,84.9 114.1,84.9 114.1,105.6 
		123.5,105.6 123.5,61.4 114.1,61.4 	"/>
	<polygon class="st1" points="142.3,68.5 142.3,61.4 127.5,61.4 127.5,105.6 129.5,105.6 142.3,105.6 142.3,98.4 136.8,98.4 
		136.8,84.9 136.8,84.9 142.3,84.9 142.3,77.7 140.3,77.7 136.8,77.7 136.8,68.5 	"/>
	<polygon class="st1" points="164,61.4 160.8,83.8 157.5,61.4 150.2,61.4 146.1,61.4 146.1,67.4 146.1,105.6 154.6,105.6 
		154.6,80.1 158.1,105.6 163.4,105.6 167,80.1 167,105.6 175.4,105.6 175.4,61.4 	"/>
	<polygon class="st1" points="192.2,105.6 200.9,105.6 200.9,61.4 192.8,61.4 192.8,84 188.1,61.4 179.4,61.4 179.4,105.6 
		187.5,105.6 187.5,83.9 	"/>
	<rect x="204.9" y="61.4" class="st1" width="9.3" height="44.2"/>
	<polygon class="st1" points="231.1,105.6 231.1,68.6 235.9,68.6 235.9,61.4 217,61.4 217,68.6 221.8,68.6 221.8,105.6 	"/>
	<polygon class="st1" points="237.2,105.6 254.8,105.6 254.8,97.9 246.9,97.9 254.8,68.9 254.8,61.4 238.2,61.4 238.2,68.9 
		245,68.9 237.2,97.9 	"/>
	<path class="st2" d="M148.4,119.7c-3.4-3-10.3-4.8-20.8-5.6c-3.6-0.3-7.6-0.4-12-0.4c-17.1,0-27.8,1.9-32.4,5.6
		c-4.5,3.7-6.8,13.2-6.8,28.4v5.7v8.3v8.6v11.4c0,10.5,2.1,18.4,6.4,23.7c4.3,5.3,10.7,8,19.2,8c4,0,7.6-0.6,10.7-1.9
		c3.1-1.3,5.8-3.2,8-5.7v37.4v2.8c0,1.6-0.4,2.9-1.3,3.8c-0.8,0.9-2.1,1.4-3.7,1.4c-1.8,0-3.1-0.6-3.9-1.8c-0.7-1.2-1.1-3.3-1.1-6.2
		v-22.5H76.4v23.2c0,14.7,2.2,24.1,6.5,28c4.4,4,15.3,6,32.8,6c17.3,0,28.2-1.9,32.7-5.8s6.7-13.3,6.7-28.2v-96.2
		C155.1,133,152.9,123.7,148.4,119.7z M120.7,175.2v2.9c0,1.6-0.4,2.9-1.3,3.7c-0.8,0.8-2.1,1.3-3.7,1.3c-1.8,0-3.1-0.6-3.9-1.8
		c-0.7-1.2-1.1-3.2-1.1-6.2v-26.3v-3.2c0-1.6,0.4-2.8,1.3-3.7c0.8-0.9,2.1-1.3,3.7-1.3c1.8,0,3.1,0.6,3.9,1.8
		c0.7,1.2,1.1,3.3,1.1,6.4V175.2z"/>
	<path class="st2" d="M240,119.7c-4.5-4-15.4-6-32.8-6c-17.1,0-27.9,1.9-32.4,5.6c-4.5,3.7-6.8,13.2-6.8,28.4v34
		c0,10.5,2.1,18.4,6.4,23.7c4.3,5.3,10.7,8,19.2,8c4,0,7.6-0.6,10.7-1.9c3.1-1.3,5.8-3.2,8-5.7v37.4v2.8c0,1.6-0.4,2.9-1.3,3.8
		c-0.8,0.9-2.1,1.4-3.7,1.4c-1.8,0-3.1-0.6-3.9-1.8c-0.7-1.2-1.1-3.3-1.1-6.2v-22.5H168v23.2c0,14.7,2.2,24.1,6.5,28
		c4.4,4,15.3,6,32.8,6c17.3,0,28.2-1.9,32.7-5.8s6.7-13.3,6.7-28.2v-96.2C246.7,133,244.5,123.7,240,119.7z M212.3,175.2v2.9
		c0,1.6-0.4,2.9-1.3,3.7c-0.8,0.8-2.1,1.3-3.7,1.3c-1.8,0-3.1-0.6-3.9-1.8c-0.7-1.2-1.1-3.2-1.1-6.2v-26.3v-3.2
		c0-1.6,0.4-2.8,1.3-3.7c0.8-0.9,2.1-1.3,3.7-1.3c1.8,0,3.1,0.6,3.9,1.8c0.7,1.2,1.1,3.3,1.1,6.4V175.2z"/>
	<path class="st2" d="M267.2,264.1c0.1,0,0.1,0,0.2-0.1l3.5-9.3c-5.3,1.9-11.1,3.1-17.4,3.6c0,0-1.1,0.7-1.2,1.4
		c-0.1,1-0.2,7.1-0.2,8.6s-0.2,2.5,0.4,2.9c0.8,0.5,2.1,0.5,2.1,0.5c3.1,0.2,6,0,8.7,0c0.4,0,0.8,0,1.2,0l2.9-7.6
		C267.3,264.1,267.3,264.1,267.2,264.1z"/>
	<path class="st2" d="M269.3,224.3c-10,1.9-15.3,3.5-16.7,4.6c-0.7,0.5-0.2,5.6-0.2,5.6s-0.3,1.7,0.6,1.9c0.7,0.2,12-4,27.1-5.8
		l3.1-8.2C279.1,222.7,274.5,223.3,269.3,224.3z"/>
	<path class="st2" d="M297.4,115c-8.3-18.1-12.2-23.6-20.1-36.5c-3.5-5.7-7.9-3.8-6.3,1.2c5.9,14.4,7.4,17.8,16.8,37.3
		c4.4,9.2,7.8,17,11,23.7h10.4C305.3,133.2,301.7,124.5,297.4,115z"/>
	<path class="st2" d="M264.8,176.8c-5.8-4.2-5.8-4.9-11-9.4c0,0-1.9-1.2-1.8,0.8c0.1,1.8-0.2,8.8,0.1,9c0.6,1.4,3.2,3.3,7.9,6.7
		c8.1,5.8,15.4,10.5,22.6,14.3l2.2-8.7C278.3,186,271.9,181.9,264.8,176.8z"/>
	<path class="st2" d="M347.3,128.2C344,84.6,327.8,49,300.7,26.4c-2.5-2.1-5.1-4.1-7.8-5.9c2.2,0.6,4.4,1.3,6.5,1.9
		c27.3,8.7,39.8,19.5,54.3,34.7l3.6,4.5c8.2,17,9.9,33.7,9.8,46.7c-0.1,8.6-1.5,21.1-5.3,32.3h9.5c2.5-7.9,3.8-15.8,4.3-22.1
		c1.4-17.5-2.7-34.6-2.7-35.2l4,11c4.9,13.2,9.2,28.6,8.8,43.7c0,0.9,0,1.8-0.1,2.6h3.6h1.7h2.8c0-0.5,0-1,0-1.6
		c-0.4-60.3-41.9-111-97.6-125.8c-11-2.9-22.5-4.4-34.4-4.4c-7,0-13.8,0.6-20.3,1.6c-30.4,4.6-56,19.2-75.9,41.2c0,0-2.9,2.9-1,3.2
		c3.1,0.5,7.1,0.1,7.7,0c1.2-0.2,10.5-10.5,21.6-18.7c0,0,5.7-3.9,21.9-1.1c8.9,1.5,24,7.5,31.9,10.9c2.9,1.3,6.8-2.4-2.6-7.8
		c-16-9.3-32.4-11.5-32.4-11.5c11.8-4.9,27.2-9.1,41.7-10.1c6.6-0.5,13-0.3,18.9,0.7c0.4,0.1,7.1,3,7.8,3.4c3.9,2.5,7.6,5.2,11.1,8
		c27,21.9,41.5,53.9,45.1,98.3c0.3,4,0.4,8.8,0.2,13.6h10.2C347.7,136.5,347.6,132.3,347.3,128.2z"/>
	<path class="st1" d="M289.9,214.5l-2.9,7.7l-3,8l-8.6,22.7l-3.7,9.8l-0.3,0.9l-3,7.9l-2.4,6.4h12.5l2.5-7.5l1.6-5h5.4l-0.7,3.9
		l-1.4,8.6h12.6l1.4-11.7l1-8.7l1.3-11.2l2.6-21.6l1.2-10.2L289.9,214.5L289.9,214.5z M292,242.9l-2,11.9v0.2h-0.4h-3.7l3.4-10.1
		l4.8-14.3L292,242.9z"/>
	<path class="st1" d="M345.7,216.5c-1.3-1.5-5.4-2.3-12.3-2.3c-1.9,0-3.7,0.1-5.3,0.2c-3.9,0.3-6.5,0.9-8,2c-2.1,1.4-3.8,5.1-5.3,11
		l-9.3,37.1l-0.2,0.7c-1.4,5.7-1.5,9.4-0.2,10.9c1.3,1.6,5.4,2.3,12.2,2.3c6.8,0,11.2-0.8,13.3-2.3c2.1-1.5,3.9-5.2,5.3-11l3.5-14.1
		H333h-6.8l-1.2,4.8l-2.2,9l-0.3,1.1c-0.2,0.7-0.5,1.2-0.9,1.5c-0.4,0.4-1,0.6-1.6,0.6c-0.7,0-1.2-0.2-1.3-0.7
		c-0.2-0.5-0.1-1.3,0.2-2.5l1.7-6.7l2.6-10.4l5-20c0.3-1.3,0.7-2.2,1-2.6s0.8-0.6,1.5-0.6c0.8,0,1.4,0.2,1.6,0.6s0.1,1.3-0.2,2.5
		L330,236h10.4h3l0.8-3.3l1.4-5.5C346.9,221.6,347,218,345.7,216.5z"/>
	<path class="st1" d="M370.4,214.5h-9.6h-0.4l-0.3,0.9l-7.6,20.1l-16,42.4H349l4.1-12.5h5.4l-2.1,12.5H369l7.6-63.3h-6.2V214.5z
		 M360.5,255.1h-4.1l8.1-24.4L360.5,255.1z"/>
	<path class="st1" d="M416.6,216.8c-1.3-1.5-5.4-2.3-12.3-2.3H389l-15.8,63.3h15.4c6.8,0,11.3-0.7,13.4-2.2s3.9-5.1,5.3-10.9
		l9.3-37.2C417.9,222,417.9,218.4,416.6,216.8z M402.8,228.4l-8.8,35.5l-0.4,1.6c-0.2,0.9-0.5,1.5-1,1.8s-1.2,0.5-2.1,0.5
		c-0.1,0-0.3,0-0.6,0c-0.3,0-0.5,0-0.7,0l10.7-43h1.2c1.1,0,1.8,0.2,2,0.6C403.3,225.6,403.2,226.7,402.8,228.4z"/>
	<polygon class="st1" points="443.8,224.8 446.4,214.5 425.1,214.5 409.3,277.9 430.6,277.9 433.1,267.6 425.2,267.6 430,248.3 
		438,248.3 440.5,237.9 432.6,237.9 435.9,224.8 	"/>
	<polygon class="st1" points="477.4,214.5 464.8,246.6 468.1,214.5 451.8,214.5 436,277.9 448.1,277.9 457.2,241.4 453.2,277.9 
		460.7,277.9 474.9,241.4 465.8,277.9 477.9,277.9 492.3,220.4 492.4,214.5 	"/>
	<polygon class="st1" points="493.7,214.5 492.4,214.5 492.3,220.4 	"/>
	<polygon class="st1" points="515.1,214.5 505.8,239 508.6,214.5 497.4,214.5 496,214.5 495.8,220.9 495.2,252.8 489,277.9 
		503,277.9 509.3,252.8 527.8,214.5 	"/>
	<polygon class="st1" points="318.8,144.3 316.8,152.6 314.1,163.5 310.7,176.7 311.4,161 312.1,146 312.2,144.3 311.1,144.3 
		300.5,144.3 299.7,144.3 288.1,191 285.9,199.7 283.9,207.6 295.5,207.6 296.3,204.2 298.5,195.3 303.2,176.6 302.5,196.7 
		302.2,206.2 302.2,207.6 307,207.6 314.7,207.6 316.4,200.5 324.2,169.5 326.4,160.7 330.5,144.3 	"/>
	<polygon class="st1" points="347.4,144.3 337.2,144.3 336.2,144.3 331.6,162.9 329.5,171.3 321.9,201.7 320.4,207.6 333.7,207.6 
		335,202.6 337.1,194.3 346,158.4 349.5,144.3 	"/>
	<g>
		<polygon class="st1" points="385.2,147.8 386.1,144.3 385.3,144.3 374.5,144.3 366.4,176.7 367.5,150 367.8,144.3 360.3,144.3 
			355.3,144.3 351.9,157.9 348.7,170.8 340.9,202.1 339.5,207.6 351.1,207.6 353.2,199 358.8,176.6 358.1,196.9 357.8,206.4 
			357.8,207.6 365.8,207.6 370.3,207.6 377.2,180 		"/>
		<polygon class="st1" points="410.6,154.5 413.1,144.3 393.5,144.3 391.8,144.3 376.9,204.1 376,207.6 397.3,207.6 399.9,197.3 
			391.9,197.3 396.8,178 404.7,178 407.3,167.7 399.3,167.7 402.6,154.5 		"/>
	</g>
	<path class="st1" d="M446,146.5c-1.5-1.5-5.5-2.3-12.2-2.3h-15.3l-15.7,63.4h13.4l6.3-25.1h0.8c1.2,0,1.9,0.2,2.3,0.7
		c0.3,0.5,0.3,1.3,0,2.7l-5.4,21.8h13.4l5.1-20.6c0.8-3.2,0.9-5.5,0.3-7s-1.9-2.6-4-3.3c2.6-0.8,4.5-2,5.8-3.6
		c1.3-1.5,2.5-4.6,3.7-9.2l1.6-6.6C447.5,151.7,447.5,148.1,446,146.5z M432.5,157.9l-2.2,8.7l-0.4,1.7c-0.2,1-0.6,1.6-1,2
		c-0.5,0.3-1.2,0.5-2.2,0.5c-0.1,0-0.3,0-0.6,0c-0.3,0-0.5,0-0.6,0l4-16.2h1.2c1.1,0,1.8,0.2,2,0.5S432.9,156.3,432.5,157.9z"/>
	<path class="st1" d="M481.5,145.9c-1.6-1.3-5.5-2-11.9-2c-6.8,0-11.2,0.8-13.3,2.3c-2.1,1.5-3.8,5.1-5.3,10.8l-1.8,7.4
		c-0.7,2.9-0.8,5.3-0.4,7c0.5,1.8,1.6,3.2,3.4,4.4l7.7,5c0.9,0.6,1.5,1.1,1.7,1.7s0.2,1.5-0.2,2.8l-2.4,9.4l-0.3,1.2
		c-0.1,0.6-0.4,1-0.9,1.4s-1,0.6-1.6,0.6c-0.7,0-1.2-0.2-1.4-0.7c-0.2-0.5-0.1-1.3,0.1-2.4l3.1-12.4h-13.4l-3.2,12.8
		c-1.4,5.6-1.4,9.2-0.1,10.7c1.3,1.6,5.4,2.4,12.4,2.4c4.7,0,8-0.2,9.8-0.6s3.2-1.2,4.3-2.3c0.8-0.8,1.5-1.7,2-2.7
		c0.5-1.1,1-2.7,1.6-4.8l3.6-14.4c0.7-2.8,0.8-5,0.2-6.7c-0.5-1.6-1.8-3.1-3.8-4.2l-7.2-4.5c-0.9-0.6-1.5-1.1-1.7-1.7
		s-0.2-1.5,0.1-2.7l1.5-6c0.3-1.2,0.6-2,1-2.4c0.4-0.5,0.9-0.7,1.6-0.7c0.8,0,1.3,0.2,1.5,0.6s0.1,1.3-0.2,2.5l-2.3,9.1h13.2
		l2.4-9.4l1-3.8C483.4,149.6,483.1,147.3,481.5,145.9z"/>
</g>
</svg>
